#!OML:ASF F:\VICON\USERDATA\INSTALL\rory3\rory3.ASF
:FULLY-SPECIFIED
:DEGREES
1214
root 3.01884 17.8941 6.87119 -179.412 -5.68722 -181.052
lowerback 6.90089 0.127091 -2.49636
upperback 1.79089 -0.0766114 2.07243
thorax -2.01531 -0.081172 3.55405
lowerneck -14.1648 6.53463 -8.18103
upperneck 38.0927 8.61897 -0.103218
head 15.393 1.04435 2.41827
rclavicle 1.18277e-014 5.56597e-015
rhumerus -46.5301 -20.064 -64.9446
rradius 32.8702
rwrist 14.5729
rhand -18.2607 -2.92579
rfingers 7.12502
rthumb 8.01871 -32.7537
lclavicle 1.18277e-014 5.56597e-015
lhumerus -62.1502 36.3915 53.4616
lradius 18.5966
lwrist -14.8427
lhand -14.2523 24.2234
lfingers 7.12502
lthumb 11.8858 53.866
rfemur -20.6334 3.13431 18.2167
rtibia 27.5331
rfoot -4.76976 -3.6662
rtoes 4.83537
lfemur 0.812614 -4.05954 -18.0013
ltibia 39.0464
lfoot -2.72722 -8.02868
ltoes -25.2548
1215
root 2.99715 17.85 6.95931 -179.268 -5.9267 -181.125
lowerback 6.78007 0.0103718 -2.84959
upperback 1.65088 -0.242749 2.1622
thorax -2.07705 -0.155562 3.86149
lowerneck -14.2912 6.46944 -8.29179
upperneck 38.1394 8.52375 0.0385122
head 15.4336 1.00253 2.48702
rclavicle 8.34896e-015 7.95139e-016
rhumerus -45.8748 -19.6797 -65.5751
rradius 33.1626
rwrist 14.6589
rhand -18.6081 -3.1728
rfingers 7.12502
rthumb 7.68343 -33.0132
lclavicle 8.34896e-015 7.95139e-016
lhumerus -60.8464 36.0158 54.6933
lradius 18.824
lwrist -14.7857
lhand -14.1451 24.868
lfingers 7.12502
lthumb 11.9891 54.5047
rfemur -21.5677 3.09322 17.9399
rtibia 28.4693
rfoot -5.0303 -3.67335
rtoes 5.06246
lfemur 2.90612 -4.77613 -18.3004
ltibia 34.824
lfoot -4.21082 -8.17338
ltoes -29.5759
1216
root 2.9713 17.8073 7.051 -179.017 -6.2568 -181.059
lowerback 6.60321 -0.143849 -2.96795
upperback 1.43962 -0.438243 2.2361
thorax -2.17774 -0.241844 4.02145
lowerneck -14.2998 6.41052 -8.31576
upperneck 38.0764 8.42426 0.118606
head 15.4017 0.976252 2.50926
rclavicle -1.05356e-014 -9.54166e-015
rhumerus -45.2174 -19.4203 -66.1404
rradius 33.3704
rwrist 14.8693
rhand -18.6963 -2.57874
rfingers 7.12502
rthumb 7.59826 -32.4223
lclavicle -1.05356e-014 -9.54166e-015
lhumerus -59.6001 35.645 55.6724
lradius 19.017
lwrist -14.8181
lhand -13.7345 25.6299
lfingers 7.12502
lthumb 12.3851 55.243
rfemur -22.5378 3.03236 17.7823
rtibia 29.226
rfoot -5.12904 -3.78594
rtoes 5.07527
lfemur 4.75872 -5.37607 -18.3917
ltibia 30.8767
lfoot -6.2461 -7.83427
ltoes -31.3875
1217
root 2.94173 17.7784 7.14576 -178.689 -6.67032 -181.092
lowerback 6.41909 -0.29632 -3.07428
upperback 1.23052 -0.630989 2.21829
thorax -2.27218 -0.326121 4.07822
lowerneck -14.2853 6.2684 -8.22134
upperneck 37.9372 8.20773 0.0919645
head 15.3486 0.913049 2.44834
rclavicle 5.96354e-016 -1.27222e-014
rhumerus -44.4106 -19.3185 -66.7515
rradius 33.4752
rwrist 15.0742
rhand -18.568 -2.12448
rfingers 7.12502
rthumb 7.72212 -31.9635
lclavicle 5.96354e-016 -1.27222e-014
lhumerus -58.1897 35.2304 56.6154
lradius 19.274
lwrist -14.7797
lhand -13.3313 26.4462
lfingers 7.12502
lthumb 12.7738 56.0354
rfemur -23.4631 2.95603 17.4689
rtibia 29.7737
rfoot -5.21416 -4.01822
rtoes 5.64853
lfemur 6.38188 -5.90207 -18.5794
ltibia 27.3193
lfoot -7.87858 -7.10278
ltoes -29.7888
1218
root 2.91269 17.7664 7.24279 -178.304 -7.12577 -181.163
lowerback 6.12691 -0.440229 -3.22097
upperback 1.08331 -0.814838 2.20442
thorax -2.24187 -0.410375 4.15811
lowerneck -14.3733 6.07145 -8.29819
upperneck 37.8417 7.91704 0.248034
head 15.3228 0.820106 2.48692
rclavicle -3.77691e-015 1.51076e-014
rhumerus -43.534 -19.1912 -67.3796
rradius 33.5889
rwrist 15.1926
rhand -18.6086 -2.03422
rfingers 7.12502
rthumb 7.68299 -31.8747
lclavicle -3.77691e-015 1.51076e-014
lhumerus -56.7367 35.1029 57.3635
lradius 19.531
lwrist -15.0822
lhand -12.8399 26.8976
lfingers 7.12502
lthumb 13.2475 56.4566
rfemur -24.3405 3.02253 17.0715
rtibia 30.1381
rfoot -5.3477 -4.46333
rtoes 6.3892
lfemur 7.72657 -6.22028 -18.7304
ltibia 24.0857
lfoot -8.77924 -6.36636
ltoes -28.1811
1219
root 2.88502 17.7486 7.34266 -177.931 -7.56735 -181.167
lowerback 5.88767 -0.567287 -3.36143
upperback 0.927924 -0.977631 2.23364
thorax -2.25007 -0.483876 4.27788
lowerneck -14.5273 5.88128 -8.33982
upperneck 37.8423 7.64207 0.353802
head 15.366 0.718198 2.50349
rclavicle -8.64713e-015 4.05521e-014
rhumerus -42.8056 -18.9403 -68.0079
rradius 33.9006
rwrist 15.2811
rhand -18.5759 -2.03677
rfingers 7.12502
rthumb 7.71449 -31.8761
lclavicle -8.64713e-015 4.05521e-014
lhumerus -55.2869 34.8672 58.1929
lradius 19.8917
lwrist -15.5043
lhand -12.096 27.0502
lfingers 7.12502
lthumb 13.9645 56.5612
rfemur -25.1693 3.1399 16.7627
rtibia 30.357
rfoot -5.34004 -4.97079
rtoes 7.14409
lfemur 8.79561 -6.08718 -18.6699
ltibia 21.0722
lfoot -9.53234 -6.04071
ltoes -28.3948
1220
root 2.85942 17.7244 7.44604 -177.595 -7.98459 -181.224
lowerback 5.79233 -0.654276 -3.60945
upperback 0.751795 -1.09775 2.24174
thorax -2.36195 -0.532111 4.4364
lowerneck -14.7232 5.70523 -8.27873
upperneck 37.9269 7.34816 0.484569
head 15.4649 0.61847 2.51262
rclavicle -4.07509e-015 3.18055e-015
rhumerus -42.2093 -18.6388 -68.6716
rradius 34.3011
rwrist 15.4583
rhand -18.8466 -2.02829
rfingers 7.12502
rthumb 7.45322 -31.877
lclavicle -4.07509e-015 3.18055e-015
lhumerus -53.5245 34.0188 59.6413
lradius 20.4908
lwrist -15.1886
lhand -11.4228 27.6766
lfingers 7.12502
lthumb 14.6132 57.1418
rfemur -25.9329 3.16124 16.4468
rtibia 30.4788
rfoot -5.13572 -5.45787
rtoes 6.78058
lfemur 9.61733 -5.57941 -18.6086
ltibia 18.2208
lfoot -10.2758 -6.09373
ltoes -28.1266
1221
root 2.83668 17.707 7.55081 -177.233 -8.45121 -181.353
lowerback 5.65807 -0.742036 -3.89535
upperback 0.623284 -1.22173 2.2166
thorax -2.40138 -0.584662 4.58031
lowerneck -15.0612 5.52373 -8.38864
upperneck 38.0949 7.04021 0.847628
head 15.6167 0.518409 2.65389
rclavicle 2.31087e-014 -7.95139e-016
rhumerus -41.5189 -18.2692 -69.4035
rradius 34.7099
rwrist 15.4375
rhand -19.2111 -2.03277
rfingers 7.12502
rthumb 7.10137 -31.8936
lclavicle 2.31087e-014 -7.95139e-016
lhumerus -51.6187 33.2454 61.0253
lradius 21.0648
lwrist -14.8998
lhand -10.7502 28.167
lfingers 7.12502
lthumb 15.2611 57.5841
rfemur -26.6592 3.26241 16.0131
rtibia 30.5792
rfoot -5.07138 -6.05652
rtoes 6.60212
lfemur 10.2903 -4.96188 -18.5904
ltibia 15.4186
lfoot -10.7427 -6.34115
ltoes -26.699
1222
root 2.81398 17.6909 7.66103 -176.804 -8.98932 -181.562
lowerback 5.54285 -0.847924 -4.22084
upperback 0.474894 -1.37277 2.14984
thorax -2.46802 -0.648522 4.70565
lowerneck -15.2666 5.33043 -8.42853
upperneck 38.1148 6.73094 1.07808
head 15.6782 0.425312 2.72065
rclavicle 2.47487e-014 -3.65764e-014
rhumerus -40.824 -18.0013 -70.0463
rradius 35.1926
rwrist 15.1396
rhand -18.8787 -2.07416
rfingers 7.12502
rthumb 7.42221 -31.924
lclavicle 2.47487e-014 -3.65764e-014
lhumerus -49.826 32.6454 62.118
lradius 21.7275
lwrist -14.8274
lhand -10.0774 28.4343
lfingers 7.12502
lthumb 15.9091 57.8009
rfemur -27.4227 3.36039 15.4293
rtibia 30.7025
rfoot -5.16594 -6.62273
rtoes 8.6135
lfemur 10.9296 -4.31076 -18.6346
ltibia 12.4735
lfoot -10.7156 -6.73336
ltoes -23.7764
1223
root 2.79312 17.6685 7.77588 -176.357 -9.43023 -181.88
lowerback 5.54189 -0.947682 -4.718
upperback 0.294827 -1.53133 2.07503
thorax -2.62536 -0.710235 4.92419
lowerneck -15.5054 5.12837 -8.50021
upperneck 38.0945 6.46288 1.21153
head 15.7325 0.33342 2.75795
rclavicle -1.42628e-014 1.66979e-014
rhumerus -40.1222 -17.6485 -70.6838
rradius 35.6207
rwrist 15.0138
rhand -18.5806 -1.93342
rfingers 7.12502
rthumb 7.70998 -31.7729
lclavicle -1.42628e-014 1.66979e-014
lhumerus -48.1201 31.862 63.3197
lradius 22.6668
lwrist -14.3984
lhand -9.4261 29.0352
lfingers 7.12502
lthumb 16.5362 58.3505
rfemur -28.2056 3.5134 14.7189
rtibia 30.789
rfoot -5.30623 -7.18141
rtoes 12.155
lfemur 11.6696 -4.34232 -19.002
ltibia 9.2831
lfoot -10.2173 -6.23697
ltoes -21.005
1224
root 2.77306 17.6562 7.89095 -175.885 -9.899 -182.262
lowerback 5.50488 -1.05018 -5.24294
upperback 0.133301 -1.69623 1.97843
thorax -2.74048 -0.775777 5.1349
lowerneck -15.7395 4.90785 -8.59738
upperneck 38.0672 6.17791 1.33464
head 15.7843 0.230199 2.79177
rclavicle -6.90777e-015 2.38542e-014
rhumerus -39.4457 -17.0391 -71.4164
rradius 36.0812
rwrist 14.9759
rhand -18.4634 -1.74801
rfingers 7.12502
rthumb 7.82308 -31.5833
lclavicle -6.90777e-015 2.38542e-014
lhumerus -46.4037 30.8386 64.622
lradius 23.7526
lwrist -13.7653
lhand -8.87698 29.4525
lfingers 7.12502
lthumb 17.0649 58.723
rfemur -28.9912 3.55108 13.9757
rtibia 30.8175
rfoot -5.22737 -7.83389
rtoes 12.4515
lfemur 12.6574 -4.39057 -19.4905
ltibia 5.56619
lfoot -9.24062 -5.93057
ltoes -19.6768
